<?xml version="1.0" standalone="no"?>
<!DOCTYPE svg PUBLIC "-//W3C//DTD SVG 20010904//EN"
 "http://www.w3.org/TR/2001/REC-SVG-20010904/DTD/svg10.dtd">
<svg version="1.0" xmlns="http://www.w3.org/2000/svg"
 width="1001.000000pt" height="1001.000000pt" viewBox="0 0 1001.000000 1001.000000"
 preserveAspectRatio="xMidYMid meet">
<metadata>
Created by potrace 1.11, written by Peter Selinger 2001-2013
</metadata>
<g transform="translate(0.000000,1001.000000) scale(0.100000,-0.100000)"
fill="#000000" stroke="none">
<path d="M5415 9183 c61 -37 116 -66 124 -65 7 2 10 -1 7 -6 -3 -5 11 -18 32
-28 20 -10 38 -22 40 -26 2 -4 20 -17 40 -30 30 -18 125 -86 211 -152 12 -9
13 -8 7 3 -7 10 -3 12 15 7 17 -4 15 -2 -6 8 -16 8 -32 13 -35 11 -3 -1 -18
10 -33 25 -25 23 -27 28 -12 33 9 4 14 3 11 -2 -9 -14 19 -32 38 -25 22 8 20
21 -5 34 -15 9 -28 9 -49 0 -33 -14 -52 -6 -43 17 4 11 3 14 -5 9 -7 -4 -21
-1 -32 7 -16 11 -18 16 -7 20 8 3 20 0 26 -6 6 -6 14 -8 17 -4 4 4 -9 14 -29
22 -46 19 -48 19 -40 -2 6 -15 5 -15 -15 -2 -12 9 -31 27 -42 42 -21 26 -48
39 -34 15 4 -7 3 -8 -5 -4 -6 4 -8 12 -5 18 5 8 1 9 -10 5 -10 -4 -15 -3 -11
3 4 6 12 10 18 9 7 -1 21 -1 32 0 18 2 18 3 -3 12 -13 5 -29 6 -35 2 -15 -10
-57 -11 -57 -3 0 4 -12 13 -27 21 -16 8 -37 23 -48 33 -21 20 -12 16 46 -20
42 -26 64 -18 57 20 -5 27 9 35 29 15 6 -6 41 -14 79 -18 38 -5 59 -9 47 -10
-13 0 -23 -5 -23 -10 0 -10 77 -3 102 10 10 5 19 5 23 0 3 -5 -15 -13 -40 -17
-54 -8 -53 -9 0 -18 31 -5 37 -4 25 4 -12 9 -9 11 15 7 17 -3 41 1 55 8 16 9
19 15 10 15 -21 2 -46 7 -120 25 -36 8 -81 16 -100 16 -19 1 -39 5 -45 9 -5 4
-35 10 -65 13 -50 6 -53 5 -35 -9 17 -13 18 -16 5 -24 -8 -5 -22 -9 -30 -9
-11 0 -9 3 3 8 40 15 -15 36 -123 46 l-55 5 110 -67z m342 1 c-3 -3 -12 -4
-19 -1 -8 3 -5 6 6 6 11 1 17 -2 13 -5z"/>
<path d="M5878 9153 c-31 -8 -19 -19 20 -17 20 1 47 -5 60 -13 13 -8 32 -11
42 -8 11 4 20 2 20 -3 0 -9 36 -20 89 -28 13 -1 26 -6 30 -10 3 -4 -5 -4 -19
-1 -31 8 -59 -6 -39 -19 7 -4 14 -3 17 4 2 7 8 10 13 6 5 -3 31 -8 57 -10 l47
-5 -45 21 c-25 12 -57 23 -72 25 -14 2 -36 9 -49 16 -20 10 -92 33 -139 44 -8
2 -23 1 -32 -2z"/>
<path d="M5645 9100 c3 -5 11 -10 16 -10 6 0 7 5 4 10 -3 6 -11 10 -16 10 -6
0 -7 -4 -4 -10z"/>
<path d="M5920 9095 c0 -11 11 -15 39 -15 49 0 62 15 20 24 -47 9 -59 7 -59
-9z"/>
<path d="M6025 9080 c4 -6 11 -8 16 -5 14 9 11 15 -7 15 -8 0 -12 -5 -9 -10z"/>
<path d="M5880 9058 c0 -3 6 -11 14 -17 10 -9 17 -7 27 6 12 16 12 17 -2 6
-12 -10 -18 -10 -27 -1 -7 7 -12 9 -12 6z"/>
<path d="M6038 9053 c7 -3 16 -2 19 1 4 3 -2 6 -13 5 -11 0 -14 -3 -6 -6z"/>
<path d="M6240 9030 c0 -5 5 -10 10 -10 6 0 10 5 10 10 0 6 -4 10 -10 10 -5 0
-10 -4 -10 -10z"/>
<path d="M6254 9012 c-12 -8 -15 -44 -3 -36 5 3 27 -7 49 -21 38 -24 60 -26
60 -4 0 5 -6 9 -13 9 -7 0 -31 8 -52 19 -35 17 -36 19 -19 29 14 8 15 11 4 12
-8 0 -20 -4 -26 -8z"/>
<path d="M6290 8999 c-12 -8 -10 -9 8 -4 16 5 22 3 20 -7 -2 -9 7 -13 27 -12
17 0 33 -4 36 -9 4 -5 13 -7 20 -4 9 3 0 11 -21 20 -57 24 -74 27 -90 16z m57
-15 c-3 -3 -12 -4 -19 -1 -8 3 -5 6 6 6 11 1 17 -2 13 -5z"/>
<path d="M6420 8950 c0 -5 6 -10 13 -10 6 -1 1 -10 -12 -20 -28 -24 -21 -26
20 -4 20 10 35 12 42 6 7 -5 23 -12 37 -16 14 -4 0 7 -30 23 -60 33 -70 36
-70 21z"/>
<path d="M6240 8899 c0 -5 9 -9 20 -9 11 0 20 4 20 8 0 4 -9 8 -20 9 -11 1
-20 -2 -20 -8z"/>
<path d="M6466 8901 c-3 -5 6 -8 20 -8 19 0 22 2 13 8 -18 11 -26 11 -33 0z"/>
<path d="M6558 8887 c6 -7 9 -22 6 -34 -6 -22 9 -38 26 -28 8 5 7 11 -1 21 -9
11 -8 14 5 14 9 0 16 -5 16 -10 0 -6 6 -10 13 -9 19 3 48 -12 41 -22 -3 -5 -1
-9 5 -9 31 0 11 20 -51 53 -39 21 -66 32 -60 24z"/>
<path d="M5930 8840 c0 -5 4 -10 9 -10 6 0 13 5 16 10 3 6 -1 10 -9 10 -9 0
-16 -4 -16 -10z"/>
<path d="M4615 8820 c-526 -22 -1139 -126 -1785 -304 -268 -74 -272 -76 -100
-69 218 8 770 -26 855 -54 18 -5 16 -7 -10 -15 -16 -5 -45 -12 -64 -14 -19 -3
-57 -15 -85 -28 -28 -13 -90 -39 -138 -57 -48 -19 -88 -40 -88 -47 0 -7 -4
-10 -10 -7 -10 6 -143 -53 -148 -67 -2 -4 -9 -8 -15 -8 -22 -1 -209 -118 -196
-122 8 -3 5 -7 -9 -10 -15 -4 -20 -2 -15 5 3 7 -5 2 -18 -9 -13 -12 -50 -38
-82 -59 -32 -20 -60 -42 -63 -49 -3 -7 -11 -13 -18 -13 -7 0 -41 -21 -75 -48
-45 -36 -58 -51 -49 -58 10 -7 9 -8 -3 -4 -17 6 -63 -28 -179 -131 -141 -126
-209 -195 -203 -205 3 -6 1 -7 -4 -4 -13 8 -46 -27 -36 -38 5 -4 3 -5 -3 -2
-9 5 -71 -57 -208 -210 -22 -25 -35 -47 -30 -54 4 -7 3 -9 -3 -6 -13 8 -76
-60 -68 -73 3 -5 0 -12 -6 -16 -8 -5 -10 -2 -4 7 4 8 -8 -4 -28 -26 -19 -22
-33 -43 -30 -47 2 -5 -1 -7 -9 -6 -8 2 -12 -4 -10 -16 2 -10 -1 -15 -6 -12
-13 8 -232 -288 -232 -314 0 -6 -4 -8 -10 -5 -14 9 -12 -8 2 -25 11 -12 10
-12 -4 -1 -14 10 -19 9 -30 -11 -20 -36 -31 -53 -65 -103 -18 -25 -33 -48 -33
-51 0 -2 -23 -39 -51 -81 -65 -98 -82 -132 -75 -149 3 -7 2 -13 -2 -13 -19 3
-32 -2 -32 -13 0 -6 -6 -19 -14 -27 -7 -9 -26 -41 -42 -71 -16 -30 -36 -60
-44 -67 -8 -7 -10 -13 -5 -13 6 0 6 -3 -1 -8 -5 -4 -34 -52 -63 -107 -53 -99
-53 -100 -20 -69 19 17 59 54 89 82 30 27 109 93 175 146 66 53 132 106 146
119 14 12 38 29 53 36 16 9 25 20 21 29 -3 10 0 12 10 8 8 -3 15 -1 15 4 0 6
5 10 10 10 20 0 90 53 83 63 -3 5 0 8 8 5 7 -2 18 -1 24 4 32 26 187 128 195
128 14 0 12 17 -2 24 -7 3 -2 3 11 0 17 -4 21 -3 16 6 -5 8 -2 10 11 6 22 -7
27 -2 140 154 43 58 86 116 98 129 42 48 262 268 304 303 117 100 311 237 392
278 25 12 47 26 50 29 14 18 330 167 427 201 29 10 67 25 85 33 45 19 189 66
257 83 31 8 97 26 146 38 347 91 799 150 1229 160 l218 6 57 -28 c69 -34 122
-64 274 -156 64 -39 135 -81 157 -94 22 -13 40 -27 40 -30 0 -4 -21 -15 -48
-25 -26 -11 -56 -23 -67 -28 -11 -5 -83 -35 -160 -68 -128 -53 -331 -146 -380
-173 -11 -7 -37 -21 -59 -32 l-39 -21 89 -7 c75 -6 292 -29 399 -43 17 -2 56
-9 89 -15 32 -6 70 -9 85 -6 14 3 19 2 11 -1 -16 -7 204 -52 257 -53 17 0 35
-5 38 -10 4 -7 12 -7 25 0 10 5 25 10 32 9 7 0 4 -4 -7 -9 -20 -8 -20 -9 1 -9
11 -1 24 -4 28 -8 4 -5 42 -15 84 -24 42 -9 128 -31 191 -48 106 -30 115 -31
130 -16 15 16 14 17 -14 13 -16 -3 -24 -3 -17 -1 24 9 12 25 -14 19 -16 -4
-23 -3 -19 3 3 7 0 8 -10 5 -14 -6 -14 -8 2 -20 21 -16 13 -18 -19 -5 -54 22
-64 25 -82 25 -11 1 -21 7 -24 15 -3 10 1 12 14 9 47 -13 49 -13 47 8 -2 20 0
21 22 10 31 -14 31 -24 3 -37 -22 -9 -22 -9 2 -3 14 3 35 6 47 6 19 0 20 3 10
19 -6 10 -17 19 -24 19 -6 0 -18 8 -25 19 -18 26 -124 111 -131 105 -3 -3 -3
-14 0 -24 3 -12 10 -17 21 -12 14 5 14 4 2 -9 -12 -14 -16 -13 -32 3 -10 10
-22 18 -28 18 -21 0 -9 16 21 27 29 11 33 9 132 -78 102 -90 162 -147 141
-135 -7 3 -14 -1 -18 -9 -3 -8 -1 -15 3 -15 5 0 17 -3 25 -6 12 -5 15 -2 11
12 -4 13 -2 12 6 -3 6 -12 24 -27 40 -34 48 -19 367 -366 565 -614 218 -271
527 -730 527 -782 0 -12 3 -20 8 -18 8 6 21 -27 24 -59 1 -11 6 -21 12 -23 6
-2 8 -15 5 -28 -3 -16 0 -25 8 -25 7 0 10 7 6 16 -4 10 -1 14 6 12 7 -3 15
-15 17 -29 1 -13 6 -26 10 -29 5 -3 11 -20 14 -37 5 -26 2 -35 -13 -43 -13 -7
-21 -7 -26 2 -4 6 -3 8 3 5 6 -4 8 4 5 21 -5 27 -6 27 -14 -8 -16 -62 -19 -67
-29 -45 -8 17 -9 17 -5 -5 3 -14 1 -32 -4 -40 -8 -12 -10 -12 -10 5 0 23 -16
9 -22 -20 -2 -11 -10 -19 -16 -18 -7 2 -12 -4 -12 -12 0 -42 -338 -273 -569
-388 -355 -178 -683 -266 -1108 -298 -391 -30 -917 36 -1275 160 -32 11 -58
16 -58 12 0 -19 198 -196 293 -261 202 -141 504 -264 762 -310 164 -30 484
-38 640 -17 128 18 289 56 395 92 107 37 314 143 422 217 139 94 325 284 424
433 131 197 246 451 228 508 -6 19 -3 18 18 -6 37 -42 298 -575 298 -608 0 -3
12 -33 27 -65 l27 -59 8 40 c16 91 30 653 21 880 -9 241 -2 319 32 338 11 6
15 27 15 87 0 86 -14 107 -25 38 -19 -125 -35 -85 -39 99 -1 26 -3 29 -15 20
-12 -10 -13 -9 -6 3 5 8 10 50 10 93 0 66 -2 75 -13 60 -12 -16 -13 -15 -7 8
4 16 2 30 -5 34 -6 4 -8 16 -4 27 5 16 3 20 -9 15 -8 -3 -14 0 -14 6 3 30 -17
156 -29 191 -8 21 -11 43 -7 49 4 6 1 7 -7 2 -9 -5 -10 -2 -6 14 3 11 9 30 12
41 3 11 10 18 15 15 5 -4 6 2 2 12 -6 14 -10 11 -23 -19 l-16 -36 -11 49 c-7
27 -10 56 -7 64 4 8 1 15 -5 15 -6 0 -11 15 -11 33 0 25 -3 29 -10 17 -8 -11
-9 -8 -4 13 3 15 2 27 -4 27 -5 0 -13 20 -16 45 -4 25 -11 45 -15 45 -7 0 -34
72 -36 95 0 6 -4 16 -8 23 -5 7 -5 22 -2 35 4 16 4 18 -3 8 -8 -11 -11 -9 -17
10 -4 13 -21 51 -36 85 -16 34 -29 70 -29 80 0 16 -2 17 -11 4 -7 -11 -8 0 -4
38 5 36 3 52 -5 52 -7 0 -9 -8 -5 -20 10 -30 -14 -24 -26 7 -7 20 -6 28 3 35
10 6 10 8 1 8 -7 0 -15 -1 -18 -2 -10 -6 -33 38 -25 47 6 7 -2 22 -20 39 -17
15 -30 32 -30 38 0 5 -9 21 -20 35 -13 16 -18 34 -15 47 5 15 4 17 -3 7 -12
-16 -27 3 -16 21 5 8 2 9 -9 5 -14 -5 -17 0 -17 23 0 23 -4 30 -20 30 -21 0
-28 20 -7 21 6 0 2 4 -10 9 -13 6 -23 18 -23 30 0 11 -6 20 -14 20 -22 0 -28
17 -15 42 9 19 9 21 -2 11 -22 -22 -32 -14 -15 12 14 22 14 24 1 18 -9 -3 -26
4 -39 16 -12 12 -26 18 -30 14 -4 -4 -4 1 0 12 6 14 4 17 -9 12 -12 -4 -14 -2
-10 10 5 12 2 15 -10 10 -11 -4 -14 -2 -10 8 3 9 -3 18 -13 22 -25 9 -45 29
-37 37 10 10 -28 46 -49 46 -10 0 -18 7 -18 15 0 21 -30 55 -58 66 -13 5 -22
15 -20 21 3 7 0 18 -7 24 -18 18 -69 42 -83 38 -7 -1 -8 0 -2 3 19 9 10 24
-12 18 -17 -6 -20 -4 -14 10 5 14 2 16 -13 12 -12 -3 -18 1 -17 12 1 10 -14
20 -41 29 -31 10 -43 19 -43 33 0 12 -5 16 -15 13 -9 -4 -28 9 -51 35 -27 30
-45 41 -66 41 -15 0 -27 3 -27 8 4 23 -4 32 -28 33 -26 0 -78 17 -59 18 5 1 3
7 -4 15 -6 8 -18 12 -25 10 -8 -3 -22 -1 -32 6 -15 9 -14 10 7 4 47 -12 12 7
-47 27 -32 10 -48 17 -35 15 13 -2 20 0 16 6 -4 5 -17 8 -30 5 -13 -2 -21 0
-18 4 2 4 -4 13 -15 18 -24 13 -42 14 -21 1 29 -18 4 -18 -30 1 -23 13 -27 17
-11 13 16 -4 21 -3 17 5 -4 6 -22 11 -40 11 -18 0 -54 11 -79 24 -26 13 -47
20 -47 16 0 -8 -40 2 -233 59 -389 114 -863 162 -1392 141z m-890 -449 l40 -7
-47 -7 c-33 -4 -55 -2 -75 8 l-28 15 35 -1 c19 0 53 -3 75 -8z m-101 -22 c-3
-5 -15 -9 -27 -8 -12 0 -16 3 -9 6 6 2 10 8 7 13 -3 4 4 6 15 3 11 -3 17 -9
14 -14z m298 -15 c6 -4 6 -10 -1 -17 -7 -7 -15 -6 -27 4 -9 7 -37 17 -63 21
-38 6 -35 6 17 3 35 -3 68 -8 74 -11z m93 -24 c3 -5 1 -10 -4 -10 -6 0 -11 5
-11 10 0 6 2 10 4 10 3 0 8 -4 11 -10z m-68 -16 c-3 -3 -12 -4 -19 -1 -8 3 -5
6 6 6 11 1 17 -2 13 -5z m116 -1 c-7 -2 -19 -2 -25 0 -7 3 -2 5 12 5 14 0 19
-2 13 -5z m-56 -17 c0 -8 -6 -12 -14 -9 -7 3 -13 9 -13 14 0 5 6 9 13 9 8 0
14 -6 14 -14z m143 4 c17 -5 5 -7 -38 -6 -34 0 -54 4 -45 8 23 8 51 8 83 -2z
m-713 -6 c-3 -3 -12 -4 -19 -1 -8 3 -5 6 6 6 11 1 17 -2 13 -5z m770 -10 c-3
-3 -12 -4 -19 -1 -8 3 -5 6 6 6 11 1 17 -2 13 -5z m78 -23 c22 -11 35 -20 29
-20 -7 -1 -31 8 -55 19 -24 11 -37 20 -29 20 8 -1 33 -9 55 -19z m82 -27 c-3
-3 -12 -4 -19 -1 -8 3 -5 6 6 6 11 1 17 -2 13 -5z m73 -19 c19 -7 28 -14 19
-14 -9 -1 -32 6 -50 14 -43 18 -16 18 31 0z m-25 -23 c-3 -3 -11 0 -18 7 -9
10 -8 11 6 5 10 -3 15 -9 12 -12z m89 1 c-5 -5 -12 -12 -16 -18 -4 -6 -8 -2
-8 8 0 9 7 17 17 17 9 0 12 -3 7 -7z m40 -34 c-9 -15 -20 -10 -20 10 0 15 3
17 13 9 7 -6 10 -14 7 -19z m61 -7 c-3 -3 -11 0 -18 7 -9 10 -8 11 6 5 10 -3
15 -9 12 -12z m45 -12 c8 -5 11 -10 5 -10 -5 0 -17 5 -25 10 -8 5 -10 10 -5
10 6 0 17 -5 25 -10z m234 -88 c2 -4 -5 -9 -17 -9 -17 -2 -19 0 -7 7 18 12 18
12 24 2z m125 -58 c13 -12 -8 -10 -29 2 l-25 15 25 -7 c14 -3 27 -8 29 -10z
m71 -34 c8 -5 11 -10 5 -10 -5 0 -17 5 -25 10 -8 5 -10 10 -5 10 6 0 17 -5 25
-10z m685 -399 c3 -5 0 -13 -6 -17 -8 -5 -9 -3 -4 6 6 10 4 12 -9 7 -10 -4
-15 -3 -11 3 8 13 22 13 30 1z m151 -118 c-6 -6 -36 9 -36 18 0 5 9 4 20 -3
10 -7 18 -14 16 -15z m101 -88 c0 -8 -4 -12 -9 -9 -4 3 -8 9 -8 15 0 5 4 9 8
9 5 0 9 -7 9 -15z m113 -80 c7 -8 8 -15 2 -15 -5 0 -15 7 -22 15 -7 8 -8 15
-2 15 5 0 15 -7 22 -15z m95 -111 c31 -20 22 -43 -15 -40 -29 2 -56 16 -31 16
7 0 9 4 6 10 -4 6 1 7 12 3 16 -6 16 -5 4 10 -17 21 -8 22 24 1z m-130 -52
c-3 -3 -11 0 -18 7 -9 10 -8 11 6 5 10 -3 15 -9 12 -12z m-4925 -1052 c0 -5
-5 -10 -11 -10 -5 0 -7 5 -4 10 3 6 8 10 11 10 2 0 4 -4 4 -10z"/>
<path d="M5982 8797 c27 -26 71 -57 81 -57 5 0 -11 16 -36 35 -45 34 -71 47
-45 22z"/>
<path d="M6721 8792 c31 -23 98 -62 107 -62 9 0 -115 80 -124 80 -4 0 4 -8 17
-18z"/>
<path d="M6625 8785 c21 -17 45 -17 48 0 1 6 -14 11 -33 13 -33 2 -34 2 -15
-13z"/>
<path d="M6560 8740 c0 -5 10 -10 23 -10 18 0 19 2 7 10 -19 13 -30 13 -30 0z"/>
<path d="M6730 8740 c-8 -5 -10 -10 -5 -10 6 0 17 5 25 10 8 5 11 10 5 10 -5
0 -17 -5 -25 -10z"/>
<path d="M6106 8711 c-12 -5 -15 -10 -9 -14 6 -4 16 0 23 8 14 17 13 17 -14 6z"/>
<path d="M6829 8705 c18 -8 41 -15 50 -16 10 0 11 -2 4 -6 -7 -2 -13 -11 -13
-20 0 -8 -6 -13 -12 -10 -7 2 -12 10 -10 16 1 6 -2 11 -8 11 -17 0 -11 -27 8
-35 23 -11 54 -6 71 10 12 12 11 13 -10 9 -18 -5 -21 -3 -9 5 8 5 12 12 10 13
-31 24 -64 38 -87 38 l-28 -1 34 -14z"/>
<path d="M6139 8666 c14 -15 26 -26 28 -26 9 0 -24 40 -37 45 -8 4 -4 -5 9
-19z"/>
<path d="M6966 8636 c3 -9 10 -16 16 -16 5 0 6 -4 3 -10 -3 -5 -1 -10 5 -10 6
0 8 -5 5 -11 -4 -6 -14 -8 -23 -4 -9 3 -13 2 -8 -2 6 -7 86 -14 86 -7 0 1 -20
18 -45 38 -25 21 -42 30 -39 22z"/>
<path d="M6930 8615 c0 -8 7 -15 15 -15 8 0 15 7 15 15 0 8 -7 15 -15 15 -8 0
-15 -7 -15 -15z"/>
<path d="M6480 8556 c0 -2 11 -6 25 -8 14 -3 25 -1 25 3 0 5 -11 9 -25 9 -14
0 -25 -2 -25 -4z"/>
<path d="M7043 8515 c-9 -24 1 -27 15 -5 8 13 8 20 2 20 -6 0 -13 -7 -17 -15z"/>
<path d="M7123 8517 c3 -9 3 -18 -1 -20 -4 -2 0 -2 8 0 8 2 22 -6 32 -19 10
-13 18 -18 18 -12 0 6 -14 23 -32 39 -18 16 -29 21 -25 12z"/>
<path d="M7080 8510 c-8 -5 -11 -12 -7 -16 4 -4 13 -2 19 4 15 15 7 24 -12 12z"/>
<path d="M7128 8443 c7 -3 16 -2 19 1 4 3 -2 6 -13 5 -11 0 -14 -3 -6 -6z"/>
<path d="M7214 8435 c8 -8 18 -15 22 -15 3 0 1 7 -6 15 -7 8 -17 15 -22 15 -5
0 -3 -7 6 -15z"/>
<path d="M7280 8359 c-7 -11 -9 -23 -6 -27 3 -3 6 0 6 6 0 6 6 9 14 6 8 -3 17
-1 21 5 4 7 0 8 -11 4 -13 -5 -16 -3 -11 10 9 24 0 21 -13 -4z"/>
<path d="M6930 8309 c0 -5 5 -7 10 -4 6 3 10 8 10 11 0 2 -4 4 -10 4 -5 0 -10
-5 -10 -11z"/>
<path d="M7441 8223 c-1 -17 16 -25 25 -12 4 7 3 9 -4 5 -5 -3 -13 0 -15 6 -4
9 -6 10 -6 1z"/>
<path d="M7476 8192 c-3 -6 -1 -14 5 -17 15 -10 25 3 12 16 -7 7 -13 7 -17 1z"/>
<path d="M7520 8147 c0 -2 15 -16 33 -33 l32 -29 -29 33 c-28 30 -36 37 -36
29z"/>
<path d="M7600 8062 c0 -7 7 -15 15 -18 8 -4 15 -11 15 -16 0 -6 -7 -7 -16 -4
-8 3 -13 2 -9 -3 3 -5 -1 -12 -7 -14 -7 -3 -8 -6 -2 -6 5 -1 19 5 30 13 19 15
19 15 -3 38 -13 12 -23 17 -23 10z"/>
<path d="M7655 7990 c10 -11 23 -20 28 -20 6 0 1 9 -11 20 -12 11 -24 20 -28
20 -4 0 1 -9 11 -20z"/>
<path d="M7635 7950 c3 -5 8 -10 11 -10 2 0 4 5 4 10 0 6 -5 10 -11 10 -5 0
-7 -4 -4 -10z"/>
<path d="M7670 7940 c0 -5 5 -10 11 -10 5 0 7 5 4 10 -3 6 -8 10 -11 10 -2 0
-4 -4 -4 -10z"/>
<path d="M7726 7905 c4 -8 10 -15 15 -15 4 0 6 7 3 15 -4 8 -10 15 -15 15 -4
0 -6 -7 -3 -15z"/>
<path d="M7760 7872 c0 -5 7 -15 15 -22 8 -7 15 -9 15 -6 0 4 -7 14 -15 22 -8
9 -15 11 -15 6z"/>
<path d="M7695 7860 c-3 -5 -2 -10 4 -10 5 0 13 5 16 10 3 6 2 10 -4 10 -5 0
-13 -4 -16 -10z"/>
<path d="M7800 7816 c0 -8 7 -16 15 -20 13 -4 14 -2 5 14 -13 23 -20 26 -20 6z"/>
<path d="M4150 7759 c-30 -22 -63 -45 -74 -52 -10 -6 -45 -31 -77 -54 -33 -24
-64 -43 -69 -43 -6 0 -10 -3 -10 -8 0 -4 -18 -18 -40 -32 -22 -14 -40 -28 -40
-32 0 -5 -4 -8 -10 -8 -8 0 -65 -39 -120 -83 -8 -7 -31 -23 -50 -37 -19 -13
-42 -31 -50 -40 -8 -9 -31 -27 -50 -40 -19 -13 -37 -27 -40 -30 -3 -3 -21 -17
-40 -30 -19 -13 -42 -31 -50 -40 -8 -8 -35 -31 -60 -50 -53 -40 -58 -44 -88
-70 -13 -10 -56 -29 -95 -40 -330 -100 -450 -142 -681 -241 -156 -67 -413
-197 -549 -278 -100 -60 -116 -79 -223 -286 -428 -820 -508 -1978 -238 -3449
19 -105 36 -191 38 -193 2 -2 9 31 15 74 33 208 147 713 161 713 4 0 14 -26
24 -57 53 -171 189 -476 297 -666 293 -514 757 -1061 1359 -1599 118 -105 429
-366 452 -379 10 -5 -11 38 -46 98 -165 281 -423 810 -403 829 3 3 26 -10 49
-29 33 -27 50 -35 68 -30 16 4 21 3 16 -6 -4 -6 -12 -9 -17 -6 -5 4 -9 4 -9 1
0 -6 190 -125 273 -171 38 -20 77 -35 87 -32 14 3 17 1 13 -11 -5 -11 -2 -14
11 -9 10 4 15 3 11 -3 -6 -10 13 -15 50 -12 15 2 17 0 6 -7 -11 -7 -9 -11 9
-21 12 -6 24 -9 27 -6 3 3 12 -2 20 -10 9 -9 24 -12 37 -9 16 5 18 4 7 -4 -12
-8 -10 -11 11 -16 15 -4 32 -4 39 1 7 4 9 3 5 -4 -8 -13 30 -36 44 -27 6 3 10
2 10 -3 0 -14 57 -32 77 -25 10 4 14 2 9 -5 -8 -13 29 -26 46 -16 7 4 10 3 5
-1 -9 -10 152 -67 171 -60 7 3 10 0 7 -5 -3 -6 0 -10 8 -10 8 0 73 -16 143
-35 133 -36 182 -47 222 -47 12 0 22 -3 22 -7 0 -8 12 -11 58 -14 15 -1 29 -4
32 -8 6 -8 223 -46 305 -54 33 -3 71 -7 85 -10 128 -21 470 -50 655 -57 185
-6 819 -1 920 7 l100 8 -105 34 c-58 19 -109 36 -115 37 -5 2 -17 6 -25 9
-110 45 -320 120 -337 121 -11 1 -19 5 -15 10 3 5 -2 6 -12 3 -10 -4 -15 -3
-11 3 3 6 1 10 -5 10 -6 0 -29 9 -51 19 -25 12 -73 22 -127 26 -228 16 -467
58 -662 115 -122 36 -408 142 -530 196 -224 99 -516 274 -774 462 -50 37 -100
74 -111 84 -11 9 -52 43 -90 75 -205 170 -417 379 -591 583 -55 64 -112 133
-129 155 -29 40 -41 55 -60 78 -6 7 -26 32 -45 57 -19 25 -40 49 -47 53 -7 4
-13 13 -13 19 0 5 -11 23 -25 40 -14 16 -25 25 -25 19 0 -6 -4 -11 -9 -11 -4
0 -6 10 -4 23 3 15 -4 32 -21 50 -14 16 -26 31 -26 34 0 3 -15 28 -32 55 -31
47 -33 49 -39 27 -6 -20 -7 -18 -8 11 0 19 -3 65 -6 103 -4 44 -3 67 4 67 6 0
11 8 11 18 0 13 2 14 9 3 5 -8 5 -27 0 -45 -14 -49 -11 -81 12 -102 20 -18 20
-18 14 11 -5 23 -4 26 4 15 6 -8 11 -23 11 -32 0 -10 18 -36 40 -58 64 -64
247 -220 310 -263 51 -36 108 -78 178 -133 38 -29 274 -184 357 -234 39 -24
72 -45 75 -49 9 -10 479 -255 553 -287 21 -9 43 -24 50 -33 33 -44 334 -281
356 -281 7 0 9 -4 6 -10 -4 -6 1 -7 11 -3 14 5 16 3 11 -11 -6 -14 -3 -17 9
-12 23 9 90 -34 72 -46 -9 -6 -5 -7 11 -3 19 6 23 4 18 -7 -4 -11 1 -14 19
-10 13 2 24 0 24 -7 0 -5 7 -8 15 -5 8 4 15 1 15 -5 0 -6 9 -11 21 -11 12 0
23 -8 26 -20 3 -11 12 -20 19 -20 8 0 14 -4 14 -10 0 -5 -5 -10 -12 -10 -6 0
-8 -3 -5 -6 4 -4 18 1 33 11 15 9 23 12 19 5 -4 -7 1 -14 15 -17 17 -4 19 -8
8 -15 -9 -6 -6 -7 10 -3 12 4 35 0 52 -9 17 -8 28 -10 25 -5 -7 11 3 11 30 -1
13 -6 15 -9 5 -9 -8 -1 -1 -8 15 -17 18 -10 52 -17 83 -16 32 0 57 -5 66 -13
8 -8 32 -16 54 -17 22 -2 38 -5 36 -7 -10 -10 51 -30 78 -26 16 3 48 0 71 -6
23 -7 52 -11 65 -11 12 1 22 -3 22 -9 0 -7 9 -9 21 -6 11 3 32 2 47 -3 38 -13
378 -19 492 -9 52 4 133 13 180 20 47 6 104 12 127 12 23 0 40 4 37 9 -7 11 9
10 40 -2 16 -6 27 -6 31 0 4 6 0 10 -7 10 -30 1 20 18 71 24 30 4 66 13 80 21
42 22 86 33 117 29 24 -4 26 -3 9 5 -19 9 -19 10 3 10 13 1 36 8 53 16 16 9
35 15 42 14 6 -1 19 -1 27 0 13 1 13 2 0 11 -13 9 -13 10 0 10 8 0 43 13 78
30 34 16 62 26 62 22 0 -4 -19 -15 -41 -26 -22 -10 -38 -20 -36 -22 8 -8 78
27 84 41 3 8 15 15 27 15 17 0 19 2 6 11 -11 8 -8 9 15 5 20 -5 25 -4 16 3
-11 7 -7 12 17 25 40 20 48 20 31 -1 -13 -15 -12 -15 11 -3 14 7 35 23 46 36
12 14 28 23 35 21 8 -2 11 -2 6 0 -13 8 3 22 18 16 8 -3 23 -2 32 1 15 6 15 8
3 17 -11 7 -7 8 13 3 26 -6 33 1 28 29 -1 5 2 6 7 3 5 -3 16 4 26 16 11 13 26
18 41 16 19 -4 22 -1 20 19 -2 18 3 23 22 23 14 0 21 4 18 10 -4 7 3 7 20 0
14 -5 24 -6 21 -1 -3 5 1 11 9 15 21 8 19 30 -2 22 -11 -4 -8 1 7 13 13 11 28
17 32 15 10 -6 48 18 48 30 0 6 -5 5 -12 -2 -7 -7 -17 -12 -22 -12 -6 0 -1 7
11 15 12 8 29 12 37 9 12 -5 15 -2 10 11 -6 14 -3 16 14 11 15 -5 24 -1 31 13
8 14 19 19 45 17 25 -2 33 0 29 10 -6 17 -20 18 -26 2 -2 -7 -8 -9 -13 -5 -5
4 -2 12 5 16 7 5 11 14 7 20 -5 7 -1 8 10 4 13 -5 16 -3 11 10 -3 9 -1 19 5
23 7 5 8 2 3 -6 -5 -9 -4 -11 4 -6 7 4 10 13 8 19 -2 7 46 64 108 128 278 288
503 628 668 1014 57 133 130 325 123 325 -2 0 -30 -39 -62 -87 -490 -746
-1212 -1185 -2147 -1307 -642 -84 -1400 -7 -2174 220 -173 50 -429 137 -553
187 -84 34 -86 36 -158 128 -40 52 -89 117 -108 144 -19 28 -54 77 -78 110
-48 65 -183 271 -204 310 -7 14 -18 25 -23 25 -6 0 -7 5 -3 12 5 7 2 9 -9 5
-11 -4 -14 -2 -11 8 3 8 -16 51 -43 97 -27 46 -55 95 -63 110 -7 15 -17 25
-21 22 -5 -3 -6 2 -3 10 3 9 2 16 -4 16 -6 0 -16 15 -22 34 -6 19 -19 45 -29
58 -10 13 -19 28 -20 33 -3 25 -13 45 -22 45 -5 0 -8 6 -6 13 1 6 -3 11 -10
10 -7 -2 -10 3 -7 10 3 8 -7 38 -22 68 -33 67 -33 67 -44 49 -6 -9 -10 -10
-10 -3 0 6 4 14 10 18 6 4 5 15 -2 30 -6 13 -16 22 -21 18 -6 -4 -8 0 -4 10 3
8 0 21 -8 27 -8 6 -11 19 -8 27 4 10 2 14 -4 10 -7 -5 -14 6 -18 25 -11 50
-44 118 -61 125 -9 3 -12 12 -9 24 4 11 2 19 -3 19 -11 0 -27 -48 -23 -70 2
-8 8 -22 15 -30 14 -19 13 -37 -4 -72 -12 -26 -18 -30 -36 -27 -4 0 -11 -5
-15 -13 -8 -11 -11 -11 -18 1 -11 18 -2 -78 10 -99 5 -10 9 4 9 38 0 45 3 52
20 52 11 0 20 5 20 10 0 6 7 10 15 10 8 0 15 -4 15 -10 0 -19 32 -10 37 10 3
11 9 20 14 20 13 0 11 -13 -7 -38 -8 -12 -13 -26 -10 -31 9 -13 -5 -71 -15
-65 -5 3 -16 -11 -26 -30 -9 -20 -23 -36 -30 -36 -10 0 -13 -21 -13 -80 0 -67
-3 -80 -16 -80 -15 0 -16 -22 -12 -211 2 -115 1 -212 -3 -215 -4 -2 -12 4 -18
13 -9 15 -10 13 -11 -14 0 -18 -4 -33 -9 -33 -13 0 -25 389 -17 569 4 86 14
239 22 341 21 250 38 328 36 170 0 -32 1 -36 5 -15 3 17 10 36 16 44 9 11 9
15 0 18 -7 3 -13 16 -13 29 0 13 -4 24 -8 24 -28 0 53 456 144 809 88 346 200
682 237 716 141 131 387 336 522 436 33 24 62 46 65 49 6 7 129 92 275 191
128 88 360 229 528 321 105 59 114 66 90 71 -16 3 -130 6 -255 7 -227 1 -444
-10 -648 -34 -60 -7 -110 -8 -110 -4 0 24 159 288 292 486 38 56 65 102 61
101 -4 0 -33 -18 -63 -40z m-1040 -3370 c0 -27 -27 -23 -32 5 -4 19 -1 22 14
18 10 -2 18 -13 18 -23z m19 -89 c-8 -17 -13 -21 -17 -11 -2 7 1 17 7 21 7 4
10 19 6 36 -5 28 -5 28 5 4 8 -18 8 -31 -1 -50z m91 -190 c0 13 1 13 10 0 5
-8 10 -19 10 -25 0 -5 -4 -4 -9 3 -4 8 -12 13 -17 12 -5 -1 -10 4 -12 12 -2 9
0 8 7 -2 10 -13 11 -13 11 0z m-6 -85 c-4 -8 -8 -15 -10 -15 -2 0 -4 7 -4 15
0 8 4 15 10 15 5 0 7 -7 4 -15z m86 -55 c0 -5 -2 -10 -4 -10 -3 0 -8 5 -11 10
-3 6 -1 10 4 10 6 0 11 -4 11 -10z m-263 -222 c-3 -8 -6 -5 -6 6 -1 11 2 17 5
13 3 -3 4 -12 1 -19z m-2 -303 c-4 -25 -9 -44 -12 -41 -2 2 -1 25 2 51 4 25 9
44 12 41 2 -2 1 -25 -2 -51z m-28 -67 c-3 -7 -5 -2 -5 12 0 14 2 19 5 13 2 -7
2 -19 0 -25z m4 -237 l-8 -56 -7 45 c-6 37 -4 94 4 120 1 3 6 -8 10 -24 5 -16
5 -54 1 -85z m31 -5 c3 5 3 3 1 -4 -1 -7 1 -21 6 -30 5 -9 5 -26 0 -37 l-8
-20 -1 20 -1 20 -9 -20 c-4 -11 -6 -42 -4 -70 4 -49 4 -49 -7 -15 -8 26 -8 47
1 82 6 26 9 57 5 70 -4 16 -3 19 3 9 5 -7 12 -9 14 -5z m42 -111 c3 -8 1 -15
-4 -15 -6 0 -10 7 -10 15 0 8 2 15 4 15 2 0 6 -7 10 -15z m-33 -160 c-4 -29
-4 -29 -13 -5 -6 16 -5 26 4 32 10 6 10 8 1 8 -7 0 -13 10 -13 23 0 22 1 21
13 -3 7 -14 11 -38 8 -55z m21 -90 c-7 -24 -9 -26 -15 -12 -4 10 -1 24 6 32
16 18 18 14 9 -20z m18 -82 c0 -19 -3 -24 -10 -17 -6 6 -8 18 -4 27 9 24 14
21 14 -10z m13 -103 c3 -11 1 -20 -4 -20 -5 0 -9 9 -9 20 0 11 2 20 4 20 2 0
6 -9 9 -20z m14 -92 c-3 -8 -6 -5 -6 6 -1 11 2 17 5 13 3 -3 4 -12 1 -19z m10
-40 c-3 -8 -6 -5 -6 6 -1 11 2 17 5 13 3 -3 4 -12 1 -19z m10 -50 c-3 -8 -6
-5 -6 6 -1 11 2 17 5 13 3 -3 4 -12 1 -19z m44 -1 c-10 -9 -11 -8 -5 6 3 10 9
15 12 12 3 -3 0 -11 -7 -18z m-11 -63 c0 -8 -5 -12 -10 -9 -6 4 -8 11 -5 16 9
14 15 11 15 -7z m40 -168 c0 -26 -6 -18 -14 19 -5 22 -4 26 4 15 5 -8 10 -24
10 -34z m51 -157 c-5 -13 -10 -19 -10 -12 -1 15 10 45 15 40 3 -2 0 -15 -5
-28z m59 -98 c0 -5 -7 -14 -15 -21 -16 -14 -18 -10 -9 14 6 17 24 22 24 7z m7
-98 c1 -24 1 -25 -7 -8 -11 26 -12 35 -2 35 4 0 8 -12 9 -27z m33 17 c0 -5 -2
-10 -4 -10 -3 0 -8 5 -11 10 -3 6 -1 10 4 10 6 0 11 -4 11 -10z m-13 -60 c-1
-12 -5 -16 -10 -11 -5 5 -6 14 -3 20 11 16 15 13 13 -9z m2180 -66 c-3 -3 -12
-4 -19 -1 -8 3 -5 6 6 6 11 1 17 -2 13 -5z m-2139 -55 c-3 -8 -7 -3 -11 10 -4
17 -3 21 5 13 5 -5 8 -16 6 -23z m66 16 c-4 -8 -8 -15 -10 -15 -2 0 -4 7 -4
15 0 8 4 15 10 15 5 0 7 -7 4 -15z m206 -159 c0 -3 -4 -8 -10 -11 -5 -3 -10
-1 -10 4 0 6 5 11 10 11 6 0 10 -2 10 -4z m1317 -492 c-3 -3 -12 -4 -19 -1 -8
3 -5 6 6 6 11 1 17 -2 13 -5z"/>
<path d="M7780 7785 c7 -8 20 -14 29 -14 13 1 13 2 -1 6 -10 2 -18 9 -18 14 0
5 -5 9 -11 9 -8 0 -8 -5 1 -15z"/>
<path d="M7840 7772 c0 -12 39 -60 40 -49 0 5 -9 20 -20 34 -11 14 -20 21 -20
15z"/>
<path d="M7490 7760 c0 -5 7 -10 15 -10 8 0 15 5 15 10 0 6 -7 10 -15 10 -8 0
-15 -4 -15 -10z"/>
<path d="M7840 7722 c0 -12 31 -32 49 -32 6 0 11 5 11 11 0 5 -5 7 -11 4 -5
-4 -19 1 -30 11 -10 9 -19 12 -19 6z"/>
<path d="M7920 7664 c0 -7 9 -22 21 -35 16 -19 18 -20 10 -4 -17 34 -31 51
-31 39z"/>
<path d="M7620 7595 c0 -8 7 -15 15 -15 8 0 15 7 15 15 0 8 -7 15 -15 15 -8 0
-15 -7 -15 -15z"/>
<path d="M7960 7592 c0 -6 11 -24 25 -39 19 -21 23 -23 18 -8 -9 25 -43 63
-43 47z"/>
<path d="M7665 7520 c3 -5 8 -10 11 -10 2 0 4 5 4 10 0 6 -5 10 -11 10 -5 0
-7 -4 -4 -10z"/>
<path d="M8010 7505 c0 -2 11 -15 25 -29 29 -29 34 -19 6 12 -17 21 -31 28
-31 17z"/>
<path d="M8000 7471 c0 -10 19 -25 25 -20 1 2 -3 10 -11 17 -8 7 -14 8 -14 3z"/>
<path d="M8084 7403 c5 -16 2 -23 -14 -28 l-22 -7 21 -22 c12 -12 21 -27 21
-34 0 -6 5 -14 11 -18 7 -4 9 0 5 14 -4 11 -3 23 3 26 5 3 11 -5 15 -17 3 -13
13 -24 22 -24 14 0 15 2 2 11 -8 6 -20 26 -26 44 -6 18 -18 42 -27 55 -17 22
-17 22 -11 0z m18 -55 c-2 -10 -6 -18 -7 -18 -1 0 -5 8 -7 18 -3 11 0 19 7 19
7 0 10 -8 7 -19z"/>
<path d="M8165 7261 c-3 -5 -1 -12 5 -16 5 -3 10 1 10 9 0 18 -6 21 -15 7z"/>
<path d="M8172 7218 c0 -7 -3 -24 -7 -38 l-6 -25 11 24 c6 14 16 31 22 38 8
10 7 13 -4 13 -8 0 -15 -6 -16 -12z"/>
<path d="M8192 7185 c-17 -36 -15 -53 3 -29 13 17 14 18 15 1 0 -10 -7 -20
-16 -24 -11 -4 -13 -13 -8 -37 3 -17 10 -35 15 -40 5 -6 9 -18 9 -28 0 -10 6
-18 13 -18 15 0 37 -55 37 -94 0 -18 4 -26 13 -23 6 2 11 10 10 16 -2 6 2 11
7 11 6 0 10 -7 10 -15 0 -8 -4 -15 -10 -15 -5 0 -10 -18 -10 -40 0 -32 4 -40
18 -40 15 0 18 -9 18 -53 1 -29 7 -64 14 -76 8 -15 9 -26 2 -30 -5 -3 -13 -41
-17 -83 -7 -76 -7 -78 15 -78 22 0 22 2 15 80 -5 56 -4 80 4 80 6 0 11 8 11
18 0 14 2 15 10 2 5 -8 6 -17 2 -20 -10 -7 -9 -142 1 -157 4 -7 2 -25 -6 -40
-8 -16 -12 -45 -9 -70 3 -35 1 -42 -17 -48 -25 -8 -29 -50 -5 -59 23 -9 36 -7
29 4 -8 13 18 13 32 -1 7 -7 14 -2 21 20 6 17 16 31 21 31 6 0 11 9 11 20 0
11 6 23 14 26 8 3 17 17 20 30 9 34 -3 96 -17 87 -7 -4 -8 0 -4 11 7 18 -57
242 -74 260 -5 6 -9 16 -9 24 0 8 -6 28 -14 45 -7 18 -28 70 -46 117 -46 119
-71 172 -77 167 -2 -3 3 -19 12 -36 8 -17 12 -31 8 -31 -5 0 -2 -4 5 -9 12 -7
11 -13 -3 -37 l-16 -29 5 26 c6 29 -18 99 -34 99 -14 0 -12 28 2 32 9 3 8 14
-3 42 l-15 37 -12 -26z m95 -195 c-3 -11 -1 -20 4 -20 5 0 9 -8 9 -17 0 -15
-2 -15 -14 2 -12 17 -11 55 1 55 3 0 3 -9 0 -20z m46 -141 c-5 -26 -8 -29 -13
-15 -3 10 -4 32 -2 49 4 23 7 26 13 14 5 -8 6 -30 2 -48z m11 -48 c-4 -17 -9
-30 -11 -27 -3 2 -2 19 2 36 4 17 9 30 11 27 2 -2 1 -18 -2 -36z m23 -28 c-3
-10 -5 -4 -5 12 0 17 2 24 5 18 2 -7 2 -21 0 -30z m40 -105 c-3 -8 -6 -5 -6 6
-1 11 2 17 5 13 3 -3 4 -12 1 -19z m24 -125 c-12 -20 -14 -14 -5 12 4 9 9 14
11 11 3 -2 0 -13 -6 -23z m16 -35 c-3 -8 -6 -5 -6 6 -1 11 2 17 5 13 3 -3 4
-12 1 -19z m-31 -186 c-10 -11 -16 -12 -16 -4 0 7 5 12 10 12 6 0 10 8 11 18
0 11 2 13 6 4 3 -8 -2 -21 -11 -30z"/>
<path d="M8160 6998 c0 -16 5 -28 10 -28 13 0 13 20 0 40 -8 12 -10 9 -10 -12z"/>
<path d="M7951 6664 c0 -11 3 -14 6 -6 3 7 2 16 -1 19 -3 4 -6 -2 -5 -13z"/>
<path d="M8327 6463 c-11 -10 -8 -73 3 -73 6 0 10 18 10 40 0 41 -2 45 -13 33z"/>
<path d="M8102 6295 c0 -16 2 -22 5 -12 2 9 2 23 0 30 -3 6 -5 -1 -5 -18z"/>
<path d="M8321 6208 c-1 -27 14 -46 27 -33 3 3 1 9 -5 13 -6 4 -13 16 -16 27
-4 16 -5 14 -6 -7z"/>
<path d="M8361 6214 c0 -11 3 -14 6 -6 3 7 2 16 -1 19 -3 4 -6 -2 -5 -13z"/>
<path d="M8210 6130 c0 -42 9 -50 30 -25 11 13 15 13 23 3 7 -10 8 -9 4 3 -3
9 -1 21 5 27 16 16 0 32 -33 32 -27 0 -29 -2 -29 -40z"/>
<path d="M8161 5978 c0 -30 1 -31 9 -10 5 12 14 22 20 22 5 0 10 5 10 10 0 6
-9 10 -20 10 -16 0 -20 -6 -19 -32z"/>
<path d="M8220 6000 c0 -5 4 -10 9 -10 6 0 13 5 16 10 3 6 -1 10 -9 10 -9 0
-16 -4 -16 -10z"/>
<path d="M8150 5919 c0 -5 5 -7 10 -4 6 3 10 8 10 11 0 2 -4 4 -10 4 -5 0 -10
-5 -10 -11z"/>
<path d="M7561 5434 c0 -11 3 -14 6 -6 3 7 2 16 -1 19 -3 4 -6 -2 -5 -13z"/>
<path d="M7570 5385 c0 -5 5 -17 10 -25 5 -8 10 -10 10 -5 0 6 -5 17 -10 25
-5 8 -10 11 -10 5z"/>
<path d="M7556 5305 c-3 -8 -1 -15 4 -15 6 0 10 7 10 15 0 8 -2 15 -4 15 -2 0
-6 -7 -10 -15z"/>
<path d="M7553 5235 c0 -22 2 -30 4 -17 2 12 2 30 0 40 -3 9 -5 -1 -4 -23z"/>
<path d="M3030 4488 c0 -86 4 -90 30 -31 15 35 15 41 1 75 -9 21 -19 38 -23
38 -5 0 -8 -37 -8 -82z m17 20 c-3 -8 -6 -5 -6 6 -1 11 2 17 5 13 3 -3 4 -12
1 -19z m6 -38 c-3 -12 -8 -19 -11 -16 -5 6 5 36 12 36 2 0 2 -9 -1 -20z"/>
<path d="M2990 4450 c0 -22 2 -40 4 -40 2 0 6 18 8 40 2 22 0 40 -4 40 -5 0
-8 -18 -8 -40z"/>
<path d="M3012 4410 c0 -19 2 -27 5 -17 2 9 2 25 0 35 -3 9 -5 1 -5 -18z"/>
<path d="M2992 4360 c0 -19 2 -27 5 -17 2 9 2 25 0 35 -3 9 -5 1 -5 -18z"/>
<path d="M3037 4356 c-4 -10 -5 -21 -2 -24 9 -9 17 6 13 25 -3 17 -4 17 -11
-1z"/>
<path d="M2973 4210 c0 -25 2 -35 4 -22 2 12 2 32 0 45 -2 12 -4 2 -4 -23z"/>
<path d="M3045 4140 c-3 -5 -1 -10 4 -10 6 0 11 5 11 10 0 6 -2 10 -4 10 -3 0
-8 -4 -11 -10z"/>
<path d="M3016 4098 c-9 -36 -7 -88 4 -88 6 0 10 25 10 55 0 59 -4 69 -14 33z"/>
<path d="M2983 3965 c0 -27 2 -38 4 -22 2 15 2 37 0 50 -2 12 -4 0 -4 -28z"/>
<path d="M7721 3900 c-22 -22 -46 -40 -52 -40 -5 0 -7 -5 -3 -11 4 -8 -1 -9
-17 -4 -16 4 -19 3 -11 -3 18 -12 -9 -35 -31 -26 -12 4 -14 1 -10 -17 5 -19 4
-20 -13 -11 -14 8 -29 5 -66 -14 -26 -13 -54 -24 -62 -24 -8 0 -16 -4 -18 -8
-5 -12 -140 -77 -163 -79 -31 -2 -96 -20 -137 -38 -21 -8 -51 -15 -67 -15 -24
0 -31 -6 -40 -32 -6 -18 -38 -82 -71 -141 -32 -60 -53 -106 -45 -103 8 3 15 1
15 -4 0 -6 -9 -10 -19 -10 -10 0 -21 -6 -24 -14 -7 -17 19 -12 47 9 16 12 17
17 6 30 -10 12 -10 19 -2 27 9 9 12 7 12 -8 0 -33 10 -35 51 -11 37 21 52 40
28 34 -6 -1 -14 4 -16 11 -3 8 6 12 29 12 26 0 30 -3 18 -11 -13 -9 -12 -10 3
-5 33 11 177 108 172 116 -3 5 0 12 6 16 8 4 9 3 5 -4 -9 -15 -1 -15 25 -1 11
5 17 14 14 19 -3 6 0 8 7 5 7 -3 40 16 73 43 33 26 77 58 97 72 20 13 34 28
32 32 -3 4 1 8 9 8 8 0 21 8 28 17 13 15 11 16 -18 10 -21 -4 -33 -3 -33 5 0
7 14 9 39 5 43 -5 35 -11 181 128 43 41 75 75 71 75 -5 0 -27 -18 -50 -40z
m-148 -141 c-8 -8 -16 -8 -30 0 -16 9 -14 10 12 11 21 0 26 -3 18 -11z m-103
-73 c0 -2 -8 -10 -17 -17 -16 -13 -17 -12 -4 4 13 16 21 21 21 13z m-68 -42
c-12 -8 -20 -20 -17 -25 4 -5 1 -9 -4 -9 -6 0 -11 5 -11 10 0 14 40 53 48 46
3 -4 -4 -13 -16 -22z m-97 -52 c-3 -3 -11 0 -18 7 -9 10 -8 11 6 5 10 -3 15
-9 12 -12z m35 -12 c-14 -11 -29 -20 -35 -20 -5 0 4 9 20 20 38 25 48 25 15 0z
m-133 -72 c1 -10 -2 -20 -8 -23 -5 -3 -6 1 -3 9 4 11 0 16 -10 16 -9 0 -16 4
-16 8 0 16 36 7 37 -10z m-200 -43 c-4 -8 -11 -15 -17 -15 -6 0 -6 7 2 20 14
22 24 19 15 -5z m155 3 c-7 -7 -12 -8 -12 -2 0 14 12 26 19 19 2 -3 -1 -11 -7
-17z m-42 -32 c-7 -7 -13 -7 -20 0 -6 6 -3 10 10 10 13 0 16 -4 10 -10z"/>
<path d="M2981 3798 c-3 -33 -4 -122 -1 -140 1 -7 5 -2 9 12 4 14 4 54 1 90
-4 36 -8 53 -9 38z"/>
<path d="M9000 2878 c-25 -23 -46 -41 -48 -39 -1 1 -15 -7 -30 -18 -21 -16
-23 -20 -9 -21 17 0 22 -11 10 -23 -3 -4 -12 -2 -19 4 -14 12 -54 3 -54 -12 0
-5 7 -12 15 -15 8 -4 15 -10 15 -16 0 -5 -4 -7 -9 -3 -5 3 -13 0 -17 -6 -5 -8
1 -10 18 -7 24 5 25 3 16 -24 -10 -28 -22 -33 -68 -29 -39 4 -54 20 -35 41 23
26 18 36 -7 13 -22 -18 -136 -94 -240 -158 -36 -22 -44 -32 -36 -42 8 -10 6
-13 -6 -13 -9 0 -16 4 -16 10 0 5 -34 -11 -76 -35 -42 -25 -78 -45 -81 -45 -2
0 -11 -7 -19 -15 -9 -8 -11 -15 -5 -15 6 0 11 -4 11 -10 0 -14 -28 -12 -32 2
-3 9 -10 8 -22 -5 -10 -9 -21 -15 -26 -12 -4 3 -13 -2 -20 -10 -7 -8 -16 -13
-20 -10 -5 3 -11 1 -14 -4 -7 -11 10 -24 36 -28 22 -4 34 15 14 23 -9 3 -14
10 -11 15 3 4 12 6 19 3 8 -3 17 -1 21 5 3 6 10 11 16 11 13 0 11 -27 -3 -34
-7 -3 0 -3 17 0 16 3 32 9 35 13 3 5 15 11 28 15 40 13 26 31 -20 27 -10 -1
-18 0 -18 2 0 11 156 90 180 92 55 4 55 4 34 21 -18 15 -18 15 7 11 15 -2 26
1 25 7 0 6 2 12 7 13 4 2 16 11 27 21 27 25 100 63 100 52 0 -5 -16 -17 -35
-26 -48 -22 -49 -29 -7 -31 30 -1 32 0 12 6 l-25 7 25 7 c36 10 52 9 45 -3 -3
-5 -2 -10 3 -10 10 0 9 50 -1 67 -8 13 20 26 35 16 6 -3 8 -1 4 5 -3 6 -1 14
5 18 16 9 31 -18 16 -29 -7 -5 -2 -7 13 -5 21 3 25 -1 22 -22 -1 -14 -7 -27
-12 -28 -6 -2 -17 -10 -24 -18 -8 -8 -22 -14 -30 -14 -9 0 -16 -4 -16 -10 0
-5 9 -10 20 -10 11 0 20 5 20 10 0 16 37 12 44 -5 3 -8 3 -23 0 -32 -3 -10 21
23 54 72 40 60 56 92 49 97 -9 5 -7 13 6 25 17 17 18 17 12 -2 -6 -16 -5 -17
4 -5 15 21 14 30 -4 30 -8 0 -15 5 -15 11 0 7 10 9 25 5 20 -5 23 -3 18 11 -3
10 -3 15 2 11 13 -13 44 35 34 53 -6 12 -4 19 6 22 10 4 12 1 8 -11 -3 -9 -2
-14 2 -9 5 4 9 17 10 30 2 12 8 21 14 19 7 -1 10 2 7 7 -4 5 0 11 6 14 7 2 11
7 8 10 -3 3 -26 -13 -50 -35z m-31 -60 c1 7 5 10 11 7 15 -10 -12 -33 -32 -27
-21 5 -22 9 -5 26 10 12 13 11 19 -3 4 -10 7 -11 7 -3z m-79 -48 c0 -5 -2 -10
-4 -10 -3 0 -8 5 -11 10 -3 6 -1 10 4 10 6 0 11 -4 11 -10z m-18 -132 c-11
-13 -25 -35 -31 -50 -6 -16 -15 -28 -21 -28 -13 0 -13 1 6 38 8 18 25 39 37
47 30 21 34 19 9 -7z m-44 -8 c-7 -10 -14 -17 -17 -15 -4 4 18 35 25 35 2 0
-1 -9 -8 -20z m-600 -285 c3 -3 -4 -4 -16 -2 -12 2 -24 6 -28 10 -4 3 4 4 16
2 12 -2 25 -7 28 -10z"/>
<path d="M8820 2750 c-8 -5 -12 -12 -8 -15 10 -10 49 5 43 16 -8 11 -16 11
-35 -1z"/>
<path d="M8775 2521 c-3 -6 -4 -15 0 -20 3 -5 -7 -22 -21 -38 l-26 -28 17 29
c16 27 16 29 0 23 -12 -5 -18 -1 -22 13 -6 23 -14 25 -30 9 -12 -12 -4 -34 26
-71 12 -16 11 -20 -10 -37 -14 -11 -33 -35 -44 -54 -13 -24 -23 -33 -34 -29
-14 5 -14 3 -2 -11 12 -15 20 -7 83 76 64 86 88 131 75 143 -3 3 -8 1 -12 -5z"/>
<path d="M8640 2475 c0 -8 2 -15 4 -15 2 0 6 7 10 15 3 8 1 15 -4 15 -6 0 -10
-7 -10 -15z"/>
<path d="M8443 2450 c-33 -13 -28 -30 7 -30 23 0 30 4 30 20 0 22 -4 23 -37
10z"/>
<path d="M8670 2421 c0 -11 -4 -21 -9 -23 -5 -1 -12 -16 -15 -33 -4 -16 -3
-23 0 -15 4 8 18 26 31 39 26 29 30 51 8 51 -8 0 -15 -9 -15 -19z"/>
<path d="M8455 2340 c-3 -5 1 -10 9 -10 9 0 16 5 16 10 0 6 -4 10 -9 10 -6 0
-13 -4 -16 -10z"/>
<path d="M8576 2314 c-15 -39 4 -42 24 -3 8 15 7 19 -4 19 -7 0 -17 -7 -20
-16z"/>
<path d="M8605 2279 c-4 -6 -5 -13 -2 -16 7 -7 27 6 27 18 0 12 -17 12 -25 -2z"/>
<path d="M8527 2273 c-13 -12 -7 -23 13 -23 11 0 20 7 20 15 0 15 -21 21 -33
8z"/>
<path d="M8568 2220 c-14 -16 -21 -30 -14 -30 6 0 20 14 29 30 10 17 17 30 15
30 -2 0 -15 -13 -30 -30z"/>
<path d="M8535 2230 c3 -5 10 -10 16 -10 5 0 9 5 9 10 0 6 -7 10 -16 10 -8 0
-12 -4 -9 -10z"/>
<path d="M8495 2180 c-16 -7 -17 -9 -3 -9 9 -1 22 -3 30 -4 7 -2 10 -2 5 0 -4
3 -5 9 -1 14 6 11 -4 11 -31 -1z"/>
<path d="M8489 2128 c-12 -23 -12 -23 10 -4 23 21 26 26 11 26 -5 0 -15 -10
-21 -22z"/>
<path d="M7970 2111 c0 -5 5 -13 10 -16 6 -3 10 -2 10 4 0 5 -4 13 -10 16 -5
3 -10 2 -10 -4z"/>
<path d="M8435 2081 c-6 -11 9 -23 19 -14 9 9 7 23 -3 23 -6 0 -12 -4 -16 -9z"/>
<path d="M8414 2052 c3 -5 0 -13 -6 -15 -9 -4 -10 -6 -1 -6 17 -1 25 16 12 25
-7 4 -9 3 -5 -4z"/>
<path d="M8320 1989 c0 -5 5 -7 10 -4 6 3 10 8 10 11 0 2 -4 4 -10 4 -5 0 -10
-5 -10 -11z"/>
<path d="M8345 1980 c-27 -30 -12 -34 15 -5 13 14 19 25 13 25 -5 0 -18 -9
-28 -20z"/>
<path d="M7745 1970 c-3 -5 -1 -10 4 -10 6 0 11 5 11 10 0 6 -2 10 -4 10 -3 0
-8 -4 -11 -10z"/>
<path d="M7680 1940 c-11 -8 -7 -9 15 -4 37 8 45 14 19 14 -10 0 -26 -5 -34
-10z"/>
<path d="M8244 1909 c-3 -5 3 -6 13 -2 16 6 16 4 -2 -17 l-20 -23 21 11 c11 6
26 17 31 24 9 10 6 13 -13 14 -13 1 -27 -2 -30 -7z"/>
<path d="M7540 1860 c-18 -12 -2 -12 25 0 13 6 15 9 5 9 -8 0 -22 -4 -30 -9z"/>
<path d="M8156 1841 c3 -3 -10 -10 -28 -17 -24 -8 -34 -17 -35 -35 -3 -22 -2
-23 8 -4 6 11 27 28 47 37 38 18 61 14 28 -4 -11 -6 -36 -27 -55 -46 -46 -44
-14 -23 72 50 l28 23 -35 1 c-20 0 -33 -2 -30 -5z"/>
<path d="M8055 1790 c-8 -13 4 -32 16 -25 12 8 12 35 0 35 -6 0 -13 -4 -16
-10z"/>
<path d="M8020 1755 c7 -8 17 -15 22 -15 6 0 5 7 -2 15 -7 8 -17 15 -22 15 -6
0 -5 -7 2 -15z"/>
<path d="M8000 1744 c0 -7 10 -18 23 -27 19 -12 26 -12 40 -2 9 7 17 16 17 20
0 4 -6 2 -14 -4 -14 -12 -46 -5 -58 13 -5 8 -8 8 -8 0z"/>
<path d="M5357 1702 c1 -8 3 -16 3 -19 0 -3 6 -1 13 5 6 5 19 12 27 15 8 2 3
3 -12 1 -15 -2 -28 0 -31 4 -2 4 -2 1 0 -6z"/>
<path d="M7115 1710 c-3 -6 1 -7 9 -4 18 7 21 14 7 14 -6 0 -13 -4 -16 -10z"/>
<path d="M7415 1700 c3 -5 10 -10 16 -10 5 0 9 5 9 10 0 6 -7 10 -16 10 -8 0
-12 -4 -9 -10z"/>
<path d="M8007 1689 c-9 -5 -22 -7 -29 -3 -7 4 -8 3 -4 -4 4 -7 -3 -17 -18
-23 -14 -7 -27 -18 -30 -26 -4 -10 6 -7 32 8 54 34 99 77 49 48z"/>
<path d="M5390 1670 c0 -5 5 -10 10 -10 6 0 10 5 10 10 0 6 -4 10 -10 10 -5 0
-10 -4 -10 -10z"/>
<path d="M7925 1670 c-3 -5 -2 -10 4 -10 5 0 13 5 16 10 3 6 2 10 -4 10 -5 0
-13 -4 -16 -10z"/>
<path d="M6918 1653 c6 -2 18 -2 25 0 6 3 1 5 -13 5 -14 0 -19 -2 -12 -5z"/>
<path d="M5430 1646 c0 -9 30 -14 35 -6 4 6 -3 10 -14 10 -12 0 -21 -2 -21 -4z"/>
<path d="M5597 1590 c-3 -12 0 -17 11 -16 21 4 27 22 8 29 -8 3 -16 -2 -19
-13z"/>
<path d="M7855 1586 c-11 -7 -32 -16 -47 -20 -16 -3 -28 -11 -28 -16 0 -20 35
-7 89 33 28 20 15 24 -14 3z"/>
<path d="M7677 1510 c8 -32 20 -33 64 -7 36 22 38 25 16 24 -14 -1 -23 -5 -20
-9 2 -5 -3 -8 -11 -8 -9 0 -16 5 -16 10 0 6 -9 10 -19 10 -14 0 -18 -5 -14
-20z m33 -10 c0 -5 -4 -10 -10 -10 -5 0 -10 5 -10 10 0 6 5 10 10 10 6 0 10
-4 10 -10z"/>
<path d="M5745 1500 c3 -5 8 -10 11 -10 2 0 4 5 4 10 0 6 -5 10 -11 10 -5 0
-7 -4 -4 -10z"/>
<path d="M7614 1485 c-10 -8 -14 -15 -8 -15 6 0 17 7 24 15 16 19 9 19 -16 0z"/>
<path d="M7647 1465 c-11 -7 -26 -11 -35 -8 -10 4 -13 2 -8 -6 6 -9 0 -10 -21
-6 -19 5 -24 4 -15 -3 10 -7 5 -13 -21 -26 -19 -9 -39 -16 -45 -16 -5 0 -15
-7 -22 -15 -13 -15 35 3 106 40 16 8 34 15 39 15 13 1 63 40 50 39 -5 0 -18
-6 -28 -14z"/>
<path d="M7468 1443 c7 -3 16 -2 19 1 4 3 -2 6 -13 5 -11 0 -14 -3 -6 -6z"/>
<path d="M7474 1415 c-24 -18 -7 -19 26 0 16 9 19 14 9 15 -8 0 -24 -7 -35
-15z"/>
<path d="M7385 1349 c-33 -16 -70 -28 -82 -26 -13 2 -23 0 -23 -4 0 -5 -7 -9
-15 -9 -8 0 -15 -4 -15 -10 0 -5 7 -10 15 -10 8 0 15 5 15 10 0 6 8 10 18 10
24 0 162 53 162 62 0 12 -10 9 -75 -23z"/>
<path d="M7350 1360 c-9 -6 -10 -10 -3 -10 6 0 15 5 18 10 8 12 4 12 -15 0z"/>
<path d="M7127 1269 c13 -4 5 -9 -27 -14 -25 -5 -38 -10 -30 -12 8 -1 47 6 85
16 l70 18 -58 0 c-32 -1 -50 -4 -40 -8z"/>
<path d="M7003 1253 c9 -2 25 -2 35 0 9 3 1 5 -18 5 -19 0 -27 -2 -17 -5z"/>
<path d="M6993 1233 c-18 -2 -33 -8 -33 -13 0 -8 67 4 77 14 4 3 2 5 -3 4 -5
0 -24 -3 -41 -5z"/>
<path d="M6628 1203 c7 -3 16 -2 19 1 4 3 -2 6 -13 5 -11 0 -14 -3 -6 -6z"/>
<path d="M6705 1200 c-13 -6 -15 -9 -5 -9 8 0 22 4 30 9 18 12 2 12 -25 0z"/>
<path d="M6850 1200 l-35 -7 32 -2 c17 0 35 4 38 9 3 6 5 9 3 9 -2 -1 -19 -5
-38 -9z"/>
<path d="M6768 1193 c6 -2 18 -2 25 0 6 3 1 5 -13 5 -14 0 -19 -2 -12 -5z"/>
<path d="M6568 1183 c7 -3 16 -2 19 1 4 3 -2 6 -13 5 -11 0 -14 -3 -6 -6z"/>
<path d="M6298 1173 c7 -3 16 -2 19 1 4 3 -2 6 -13 5 -11 0 -14 -3 -6 -6z"/>
<path d="M6688 1173 c6 -2 18 -2 25 0 6 3 1 5 -13 5 -14 0 -19 -2 -12 -5z"/>
<path d="M6568 1163 c7 -3 16 -2 19 1 4 3 -2 6 -13 5 -11 0 -14 -3 -6 -6z"/>
</g>
</svg>
